<?xml version="1.0" standalone="no"?><!DOCTYPE svg PUBLIC "-//W3C//DTD SVG 1.1//EN" "http://www.w3.org/Graphics/SVG/1.1/DTD/svg11.dtd"><svg t="1672128300479" class="icon" viewBox="0 0 1024 1024" version="1.1" xmlns="http://www.w3.org/2000/svg" p-id="7512" xmlns:xlink="http://www.w3.org/1999/xlink" width="200" height="200"><path d="M987.7 383.9V847c0 24.8-20.1 44.9-44.9 44.9H767.9V558.1c0-9.3-0.3-18.6-1.1-27.7V427.3c14.9-46 23.5-84.5 27.8-116.6 20.2-22.8 49.7-37.3 82.7-37.3 30.5 0 58.1 12.3 78.1 32.3 20 20 32.3 47.6 32.3 78.2z" fill="#88D6F7" p-id="7513"></path><path d="M780.8 173.4c7.5 12.5 25.4 52.2 13.7 137.3-17.3 19.5-27.8 45.1-27.8 73.2v43.4c-3.4 10.4-7.1 21.3-11.1 32.5-0.1 0.2-0.6 0.6-1.3 0.9-25.1-88.1-83.7-162.1-161-207.6l-0.2-0.9s74.3-85.7 179.6-83.6c3.4 0.2 6.4 2 8.1 4.8z" fill="#FFFFFF" p-id="7514"></path><path d="M767.9 558.1v333.7h-1.1V530.4c0.8 9.1 1.1 18.4 1.1 27.7zM766.8 383.9c0-28.1 10.5-53.7 27.8-73.2-4.4 32.1-12.9 70.6-27.8 116.6v-43.4z" fill="#88D6F7" p-id="7515"></path><path d="M766.8 530.4V892h-0.9v-88.3H453.5c-10.3-9.2-24-14.7-38.9-14.7-14.9 0-28.6 5.5-38.9 14.7H61.1V558.1c0-34.9 5-68.6 14.5-100.3 0.2 0.7 0.4 1.5 0.8 2.1 2.5 3.5 95.7 42.8 95.7 42.8L239 252.5s-0.2-0.2-0.6-0.7c51.8-29.8 112.1-47 176.2-47 65.2 0 126.3 17.6 178.8 48.6l66.5 249.3s82.7-34.9 94.5-41.7c6.3 22.2 10.6 45.4 12.4 69.4z" fill="#88D6F7" p-id="7516"></path><path d="M765.9 803.5v88.3H453.5c12.2-10.8 20-26.6 20-44.2s-7.7-33.3-20-44.2h312.4v0.1z" fill="#FFFFFF" p-id="7517"></path><path d="M754.3 460.8c-11.8 7-94.5 41.7-94.5 41.7l-66.5-249.3c77.4 45.5 135.9 119.6 161 207.6zM453.5 803.5c12.2 10.8 20 26.6 20 44.2s-7.7 33.3-20 44.2h-77.9c-12.2-10.8-20-26.6-20-44.2s7.7-33.3 20-44.2h77.9zM453.5 803.5h-77.9c10.3-9.2 24-14.7 38.9-14.7 15 0 28.7 5.5 39 14.7z" fill="#88D6F7" p-id="7518"></path><path d="M375.6 891.8h77.9c-10.3 9.2-24 14.7-38.9 14.7-15 0.2-28.7-5.5-39-14.7z" fill="#88D6F7" p-id="7519"></path><path d="M61.1 803.5h314.4c-12.2 10.8-20 26.6-20 44.2s7.7 33.3 20 44.2H106.1c-24.8 0-44.9-20.1-44.9-44.9v-43.5h-0.1z" fill="#FFFFFF" p-id="7520"></path><path d="M238.9 252.4L172 502.6s-93.2-39.3-95.7-42.8c-0.2-0.7-0.4-1.5-0.8-2.1 25.9-87.7 85.1-161.2 162.7-206.1 0.5 0.5 0.7 0.8 0.7 0.8z" fill="#88D6F7" p-id="7521"></path><path d="M238.3 251.7c-77.6 44.8-136.8 118.4-162.7 206.1C7.3 267.6 40.2 191.4 51.2 173.4c1.7-2.8 4.8-4.6 8.1-4.7 100-2 172 75.2 179 83z" fill="#FFFFFF" p-id="7522"></path><path d="M375.6 897.5H106.1c-27.8 0-50.5-22.7-50.5-50.5V558.1c0-34.7 4.9-69 14.7-101.9 13-44.1 34.2-84.8 62.9-121 28.4-35.8 62.8-65.5 102.3-88.4 54.3-31.3 116.2-47.8 179-47.8 64.2 0 127 17.1 181.6 49.4 39.3 23.1 73.5 53.1 101.6 89.2 28.4 36.5 49.3 77.4 62 121.7 6.5 22.6 10.7 46.3 12.7 70.7 0.2 3.1-2.1 5.8-5.1 6-3.1 0.2-5.8-2.1-6-5.1-1.9-23.6-6-46.6-12.3-68.5-12.3-42.9-32.5-82.6-60-117.9-27.2-35-60.4-64-98.5-86.4-52.9-31.3-113.8-47.8-175.9-47.8-60.8 0-120.8 16-173.4 46.3-38.3 22.1-71.6 50.9-99.2 85.6-27.8 35.1-48.4 74.5-61 117.2-9.5 31.8-14.2 65.1-14.2 98.7V847c0 21.7 17.6 39.3 39.3 39.3h269.5c3.1 0 5.6 2.5 5.6 5.6s-2.5 5.6-5.6 5.6zM766.8 897.5H453.5c-3.1 0-5.6-2.5-5.6-5.6s2.5-5.6 5.6-5.6h313.3c3.1 0 5.6 2.5 5.6 5.6s-2.5 5.6-5.6 5.6z" fill="#1076BB" p-id="7523"></path><path d="M765.9 897.5c-3.1 0-5.6-2.5-5.6-5.6v-82.7H453.5c-3.1 0-5.6-2.5-5.6-5.6 0-3.1 2.5-5.6 5.6-5.6h312.4c3.1 0 5.6 2.5 5.6 5.6v88.3c0 3-2.5 5.6-5.6 5.6zM375.6 809.1H61.1c-3.1 0-5.6-2.5-5.6-5.6 0-3.1 2.5-5.6 5.6-5.6h314.5c3.1 0 5.6 2.5 5.6 5.6 0 3.1-2.5 5.6-5.6 5.6zM754.3 466.3c-2.2 0-4.2-1.3-5.2-3.4-1.1-2.5-0.2-5.2 1.8-6.7 3.7-10.2 7.2-20.5 10.4-30.6 1-2.9 4.1-4.6 7.1-3.6 2.9 1 4.6 4.1 3.6 7.1-3.5 10.8-7.2 21.8-11.2 32.7l-0.3 0.6c-0.8 1.5-2.1 2.7-4.2 3.6-0.5 0.2-1.2 0.3-2 0.3zM794.6 316.4c-0.3 0-0.5 0-0.8-0.1-3.1-0.4-5.2-3.3-4.8-6.3 11.3-82.6-5.3-121-12.9-133.7-0.7-1.3-2.1-2-3.4-2-93.7-1.9-163 68.4-173.8 80-0.4 2-2 3.8-4.1 4.3-3 0.8-6.1-1.1-6.8-4.1l-0.2-0.9c-0.4-1.8 0-3.7 1.2-5 0.8-0.9 19.4-22.3 51.4-43.6 29.6-19.7 76.6-43 132.5-41.9 5.3 0 10.2 2.9 12.9 7.5 8.2 13.6 26.2 54.8 14.4 140.9-0.4 2.9-2.8 4.9-5.6 4.9zM75.6 463.4c-2.3 0-4.5-1.4-5.3-3.7C40.9 377.9 26.6 307.6 28 250.9c1.1-45.5 11.9-69.9 18.3-80.4 2.7-4.6 7.6-7.5 12.9-7.5 102.2-1.9 175.3 76 183.3 84.9 2.1 2.3 1.9 5.9-0.4 7.9-2.3 2.1-5.9 1.9-7.9-0.4-7.6-8.5-77.4-83-174.8-81.2-1.4 0-2.7 0.7-3.3 1.9 0 0 0 0.1-0.1 0.1-4.7 7.7-15.7 30.4-16.7 74.9C38 306.4 52 375.3 81 455.8c1 2.9-0.5 6.1-3.4 7.2-0.8 0.3-1.4 0.4-2 0.4z" fill="#1076BB" p-id="7524"></path><path d="M942.8 897.5h-176c-3.1 0-5.6-2.5-5.6-5.6v-508c0-28.3 10.4-55.6 29.2-76.9 22.1-24.9 53.7-39.1 86.9-39.1 31 0 60.2 12.1 82.1 34 21.9 21.9 34 51 34 82.1v463c-0.1 27.8-22.7 50.5-50.6 50.5z m-170.4-11.3h170.4c21.7 0 39.3-17.6 39.3-39.3v-463c0-28-10.9-54.4-30.7-74.1-19.8-19.8-46.1-30.7-74.1-30.7-30 0-58.6 12.9-78.5 35.4-17 19.2-26.4 43.9-26.4 69.4v502.3zM414.5 912.3c-15.9 0-31-5.7-42.7-16.1-13.8-12.3-21.8-29.9-21.8-48.5 0-18.4 8-36 21.9-48.4 11.7-10.4 26.8-16.1 42.7-16.1 15.8 0 31 5.7 42.7 16.1 13.9 12.2 21.9 29.9 21.9 48.4 0 18.4-8 36-21.9 48.4-11.7 10.4-26.9 16.2-42.8 16.2z m0-117.9c-13.1 0-25.6 4.7-35.2 13.3-11.5 10.2-18.1 24.8-18.1 40 0 15.3 6.6 29.9 18.1 40 9.6 8.6 22.1 13.3 35.2 13.3 13.1 0 25.6-4.7 35.2-13.3 11.5-10.2 18.1-24.8 18.1-40 0-15.3-6.6-29.9-18.1-40-9.6-8.5-22.1-13.3-35.2-13.3z" fill="#1076BB" p-id="7525"></path><path d="M342.4 496.2h-0.6c-3.1-0.3-5.3-3.1-5-6.2 0.2-1.8 0.3-3.7 0.3-5.6 0-37.5-30.5-68-68-68-26.2 0-50.4 15.3-61.6 39.1-1.3 2.8-4.7 4-7.5 2.7-2.8-1.3-4-4.7-2.7-7.5 13-27.7 41.2-45.5 71.7-45.5 43.7 0 79.2 35.5 79.2 79.2 0 2.3-0.1 4.6-0.4 6.8-0.1 2.9-2.6 5-5.4 5zM487.7 497.8c-2.9 0-5.4-2.3-5.6-5.2-0.1-1.8-0.2-3.7-0.2-5.5 0-43.7 35.5-79.2 79.2-79.2 30.2 0 58.1 17.5 71.3 44.6 1.3 2.8 0.2 6.1-2.6 7.5-2.8 1.4-6.1 0.2-7.5-2.6C611 434 587 419 561.1 419c-37.5 0-68 30.5-68 68 0 1.5 0.1 3.1 0.2 4.8 0.2 3.1-2.1 5.8-5.2 6h-0.4z" fill="#1076BB" p-id="7526"></path><path d="M451.9 529.4h-73.6c-3.1 0-5.6-2.5-5.6-5.6s2.5-5.6 5.6-5.6h73.6c3.1 0 5.6 2.5 5.6 5.6s-2.5 5.6-5.6 5.6z" fill="#1076BB" p-id="7527"></path><path d="M414.5 860m-14.7 0a14.7 14.7 0 1 0 29.4 0 14.7 14.7 0 1 0-29.4 0Z" fill="#FFFFFF" p-id="7528"></path><path d="M414.5 880.3c-11.2 0-20.3-9.1-20.3-20.3s9.1-20.3 20.3-20.3c11.2 0 20.3 9.1 20.3 20.3s-9.1 20.3-20.3 20.3z m0-29.4c-5 0-9.1 4.1-9.1 9.1s4.1 9.1 9.1 9.1 9.1-4.1 9.1-9.1-4-9.1-9.1-9.1z" fill="#1076BB" p-id="7529"></path><path d="M408.9 788.8h11.2v58.9h-11.2z" fill="#1076BB" p-id="7530"></path><path d="M828.6 445.2a47.4 41.7 0 1 0 94.8 0 47.4 41.7 0 1 0-94.8 0Z" fill="#FFFFFF" p-id="7531"></path><path d="M876 492.6c-29.2 0-53-21.2-53-47.4 0-26.1 23.8-47.4 53-47.4s53 21.2 53 47.4c-0.1 26.2-23.8 47.4-53 47.4z m0-83.5c-23 0-41.7 16.2-41.7 36.1 0 19.9 18.7 36.1 41.7 36.1s41.7-16.2 41.7-36.1c0-19.9-18.7-36.1-41.7-36.1z" fill="#1076BB" p-id="7532"></path><path d="M817 366.7m-22.1 0a22.1 22.1 0 1 0 44.2 0 22.1 22.1 0 1 0-44.2 0Z" fill="#FFFFFF" p-id="7533"></path><path d="M817 394.4c-15.3 0-27.7-12.4-27.7-27.7 0-15.3 12.4-27.7 27.7-27.7 15.3 0 27.7 12.4 27.7 27.7 0.1 15.3-12.4 27.7-27.7 27.7z m0-44.2c-9.1 0-16.5 7.4-16.5 16.5s7.4 16.5 16.5 16.5 16.5-7.4 16.5-16.5-7.4-16.5-16.5-16.5z" fill="#1076BB" p-id="7534"></path><path d="M876 342.1m-22.1 0a22.1 22.1 0 1 0 44.2 0 22.1 22.1 0 1 0-44.2 0Z" fill="#FFFFFF" p-id="7535"></path><path d="M876 369.8c-15.3 0-27.7-12.4-27.7-27.7s12.4-27.7 27.7-27.7 27.7 12.4 27.7 27.7-12.5 27.7-27.7 27.7z m0-44.2c-9.1 0-16.5 7.4-16.5 16.5s7.4 16.5 16.5 16.5 16.5-7.4 16.5-16.5-7.4-16.5-16.5-16.5z" fill="#1076BB" p-id="7536"></path><path d="M934.8 366.7m-22.1 0a22.1 22.1 0 1 0 44.2 0 22.1 22.1 0 1 0-44.2 0Z" fill="#FFFFFF" p-id="7537"></path><path d="M934.8 394.4c-15.3 0-27.7-12.4-27.7-27.7 0-15.3 12.4-27.7 27.7-27.7 15.3 0 27.7 12.4 27.7 27.7 0 15.3-12.5 27.7-27.7 27.7z m0-44.2c-9.1 0-16.5 7.4-16.5 16.5s7.4 16.5 16.5 16.5 16.5-7.4 16.5-16.5-7.4-16.5-16.5-16.5z" fill="#1076BB" p-id="7538"></path><path d="M571.6 539.2c-1.8 0-3.7-0.9-4.7-2.6-1.7-2.6-0.9-6.1 1.7-7.8 0.7-0.5 18.2-11.6 46.9-19.7 26.4-7.5 67.8-13.7 114.7-0.6 3 0.8 4.7 3.9 3.9 6.9-0.8 3-3.9 4.7-6.9 3.9-85-23.6-151.9 18.5-152.6 18.9-0.9 0.7-1.9 1-3 1zM735.8 581.1c-0.8 0-1.7-0.2-2.5-0.6-41.1-20.4-80.6-22.2-106.4-20-28.2 2.3-46.8 9.7-47 9.8-2.9 1.1-6.1-0.3-7.3-3.1-1.1-2.9 0.2-6.1 3.1-7.3 0.8-0.3 20.1-7.9 49.8-10.5 27.4-2.3 69.2-0.6 112.8 21.1 2.8 1.4 3.9 4.7 2.5 7.5-1 2-2.9 3.1-5 3.1z" fill="#1076BB" p-id="7539"></path><path d="M254.8 539.2c-1 0-2.1-0.3-3-0.9-0.2-0.1-17.1-10.8-44.3-18.5-25-7-64-12.8-108.3-0.5-3 0.8-6.1-0.9-6.9-3.9-0.8-3 0.9-6.1 3.9-6.9 46.9-13 88.3-6.9 114.7 0.6 28.7 8.1 46.2 19.2 46.9 19.7 2.6 1.7 3.4 5.1 1.7 7.8-1.1 1.7-2.9 2.6-4.7 2.6zM90.6 581.1c-2.1 0-4-1.1-5-3.1-1.4-2.8-0.2-6.1 2.5-7.5 43.6-21.7 85.4-23.4 112.8-21.1 29.7 2.5 49 10.2 49.8 10.5 2.9 1.2 4.3 4.4 3.1 7.3-1.2 2.9-4.4 4.3-7.3 3.1-0.2-0.1-18.8-7.4-47-9.8-25.9-2.2-65.3-0.4-106.4 20-0.8 0.4-1.7 0.6-2.5 0.6z" fill="#1076BB" p-id="7540"></path><path d="M500.4 576.3c0 2-0.1 4-0.4 6.1h-36.4v-9.5h-47.9C417.5 551 435.8 534 458 534c23.4-0.1 42.4 18.9 42.4 42.3zM463.6 582.4H500c-2.7 18.7-17.6 33.6-36.4 36v-36z" fill="#FFFFFF" p-id="7541"></path><path d="M463.6 582.4v36c-1.8 0.2-3.7 0.3-5.6 0.3-21.4 0-39-15.8-42-36.4l47.6 0.1zM463.6 572.8v9.5H416c-0.3-2-0.4-4-0.4-6.1 0-1.1 0-2.4 0.1-3.5h47.9zM415.4 572.8c0.1 1.1 0.1 2.4 0.1 3.5 0 2-0.1 4-0.4 6.1h-44.8v-9.5h45.1z" fill="#FFFFFF" p-id="7542"></path><path d="M415.4 572.8h-45.1v9.5H331c-0.3-2-0.4-4-0.4-6.1 0-23.5 19-42.4 42.4-42.4 22.4 0.1 40.6 17.3 42.4 39zM370.3 582.4h44.8c-2.9 20.5-20.6 36.4-42 36.4-0.9 0-1.9 0-2.7-0.1v-36.2h-0.1zM370.3 582.4v36.2c-20.1-1.3-36.5-16.6-39.3-36.2h39.3z" fill="#FFFFFF" p-id="7543"></path><path d="M373.1 624.3c-1 0-2.1 0-3.3-0.1-22.5-1.6-41.1-18.8-44.3-41-0.4-3.1 1.7-5.9 4.8-6.3 3.1-0.4 5.9 1.7 6.3 4.8 2.4 17.1 16.8 30.3 34.1 31.4h0.4c0.4 0.1 1.3 0.1 1.9 0.1 18.2 0 33.9-13.6 36.4-31.5 0.4-3.1 3.3-5.2 6.3-4.8 3.1 0.4 5.2 3.3 4.8 6.3-3.2 23.4-23.6 41.1-47.4 41.1z" fill="#1076BB" p-id="7544"></path><path d="M458.1 624.3c-23.8 0-44.2-17.7-47.5-41.2-0.4-3.1 1.7-5.9 4.8-6.3 3.1-0.4 5.9 1.7 6.3 4.8 2.6 18 18.2 31.5 36.4 31.5 1.7 0 3.4-0.1 4.9-0.3 16.2-2.1 29.2-15 31.5-31.3 0.4-3.1 3.3-5.2 6.4-4.8 3.1 0.4 5.2 3.3 4.8 6.4-3.1 21.2-20 38-41.2 40.8-2.1 0.3-4.3 0.4-6.4 0.4z" fill="#1076BB" p-id="7545"></path><path d="M416 588h-0.9c-3.1 0-5.6-2.5-5.6-5.6s2.5-5.6 5.6-5.6h0.9c3.1 0 5.6 2.5 5.6 5.6s-2.5 5.6-5.6 5.6z" fill="#1076BB" p-id="7546"></path><path d="M415.6 586c-3.1 0-5.6-2.5-5.6-5.6v-56.6c0-3.1 2.5-5.6 5.6-5.6 3.1 0 5.6 2.5 5.6 5.6v56.6c0 3-2.5 5.6-5.6 5.6z" fill="#1076BB" p-id="7547"></path><path d="M415.7 578.4h-0.2c-3.1 0-5.6-2.5-5.6-5.6s2.5-5.6 5.6-5.6h0.2c3.1 0 5.6 2.5 5.6 5.6s-2.5 5.6-5.6 5.6zM452.9 676.6H381c-9 0-16.3-7.3-16.3-16.3v-41.6c0-3.1 2.5-5.6 5.6-5.6s5.6 2.5 5.6 5.6v41.6c0 2.7 2.3 5 5 5h71.9c2.7 0 5-2.3 5-5v-42c0-3.1 2.5-5.6 5.6-5.6s5.6 2.5 5.6 5.6v42c0.2 9-7.1 16.3-16.1 16.3z" fill="#1076BB" p-id="7548"></path></svg>